<svg width="2000" height="415" viewBox="0 0 2000 415" fill="none" xmlns="http://www.w3.org/2000/svg">
<path d="M302.824 261.926L270.84 207.5L423.954 25.1722L473.63 3.10387e-05L255.189 415L35.3862 0.680349L85.0629 25.8525L238.176 208.18L206.193 262.607H302.824V261.926ZM405.58 151.033H493.365L485.88 120.418L425.315 113.615L405.58 151.033ZM375.638 208.18H506.975L496.087 161.238H400.136L375.638 208.18ZM349.098 258.525L487.921 218.385H370.194L349.098 258.525ZM81.6604 113.615L21.0956 120.418L13.6101 151.033H101.395L81.6604 113.615ZM106.839 160.557H10.8881L0 207.5H131.337L106.839 160.557ZM136.781 217.705H19.0541L157.877 257.844L136.781 217.705Z" fill="#001871"/>
<path d="M658.727 251.721H634.91C623.341 251.721 614.495 249 608.37 242.877C602.246 236.754 598.843 227.91 598.843 217.025V148.992C598.843 137.426 602.246 129.262 608.37 123.139C614.495 117.016 623.341 114.295 634.91 114.295H658.727C669.616 114.295 678.462 117.016 685.267 123.139C691.392 129.262 694.794 138.107 694.794 148.992V159.197C694.794 162.598 693.433 163.959 690.031 163.959H671.657C668.935 163.959 666.893 162.598 666.893 159.197V150.352C666.893 145.59 666.213 142.189 664.171 140.828C662.13 138.787 658.727 138.107 654.644 138.107H639.673C634.91 138.107 632.188 138.787 630.146 140.828C628.105 142.869 627.424 146.27 627.424 150.352V216.344C627.424 221.107 628.105 224.508 630.146 225.869C632.188 227.91 635.59 228.59 639.673 228.59H654.644C659.408 228.59 662.81 227.91 664.171 225.869C666.213 223.828 666.893 220.426 666.893 216.344V207.5C666.893 204.098 668.255 202.738 671.657 202.738H690.031C693.433 202.738 694.794 204.098 694.794 207.5V217.705C694.794 228.59 691.392 237.434 685.267 243.557C679.143 249 670.296 251.721 658.727 251.721Z" fill="#001871"/>
<path d="M741.068 117.697V247.639C741.068 250.361 739.707 252.402 736.305 252.402H717.931C715.209 252.402 713.168 251.041 713.168 247.639V117.697C713.168 114.975 714.529 112.934 717.931 112.934H736.305C739.707 113.615 741.068 114.975 741.068 117.697Z" fill="#001871"/>
<path d="M821.368 251.721H792.787C790.065 251.721 788.023 250.361 787.343 246.959L753.998 117.697C753.318 114.295 754.679 112.934 758.081 112.934H778.496C781.218 112.934 783.26 114.295 783.94 117.697L806.397 223.828H807.077L829.534 117.697C830.214 114.975 831.575 112.934 834.978 112.934H855.393C858.796 112.934 860.157 114.295 859.476 117.697L826.131 246.959C826.131 250.361 824.09 251.721 821.368 251.721Z" fill="#001871"/>
<path d="M900.306 117.697V247.639C900.306 250.361 898.945 252.402 895.543 252.402H877.169C874.447 252.402 872.406 251.041 872.406 247.639V117.697C872.406 114.975 873.767 112.934 877.169 112.934H895.543C898.945 113.615 900.306 114.975 900.306 117.697Z" fill="#001871"/>
<path d="M999.66 251.721H928.887C926.165 251.721 924.124 250.361 924.124 246.959V117.697C924.124 114.975 925.485 112.934 928.887 112.934H947.261C949.983 112.934 952.025 114.295 952.025 117.697V225.189C952.025 226.549 952.705 227.229 954.747 227.229H1000.34C1003.06 227.229 1004.42 228.59 1004.42 231.992V246.959C1003.74 250.361 1002.38 251.721 999.66 251.721Z" fill="#001871"/>
<path d="M1103.1 139.467L1087.44 202.057H1119.43L1103.78 139.467H1103.1ZM1072.47 251.721H1052.06C1049.34 251.721 1048.66 250.361 1049.34 246.959L1083.36 117.016C1084.04 114.295 1086.76 112.254 1090.17 112.254H1118.75C1122.15 112.254 1124.19 113.615 1125.55 117.016L1159.58 246.959C1160.26 249.68 1159.58 251.721 1156.86 251.721H1136.44C1135.08 251.721 1133.72 251.721 1133.04 251.041C1132.36 250.361 1132.36 249 1131.68 247.639L1125.55 223.828H1083.36L1077.24 247.639C1077.24 249.68 1076.56 250.361 1075.88 251.041C1074.52 251.721 1073.83 251.721 1072.47 251.721Z" fill="#001871"/>
<path d="M1201.09 117.697V247.639C1201.09 250.361 1199.73 252.402 1196.33 252.402H1177.95C1175.23 252.402 1173.19 251.041 1173.19 247.639V117.697C1173.19 114.975 1174.55 112.934 1177.95 112.934H1196.33C1199.73 113.615 1201.09 114.975 1201.09 117.697Z" fill="#001871"/>
<path d="M1254.17 178.926H1275.26C1280.03 178.926 1283.43 178.246 1285.47 176.205C1287.51 174.164 1288.87 171.443 1288.87 166.68V149.672C1288.87 144.91 1287.51 142.189 1285.47 140.148C1283.43 138.107 1280.03 137.426 1275.26 137.426H1254.17C1252.81 137.426 1252.13 138.107 1252.13 139.467V176.885C1252.13 178.246 1252.81 178.926 1254.17 178.926ZM1247.36 251.721H1228.99C1226.27 251.721 1224.23 250.361 1224.23 246.959V117.697C1224.23 114.975 1225.59 112.934 1228.99 112.934H1280.03C1290.92 112.934 1299.76 116.336 1306.57 122.459C1312.69 128.582 1316.09 137.426 1316.09 148.311V165.32C1316.09 181.648 1309.97 192.533 1297.04 197.975V198.656L1320.18 246.959C1321.54 250.361 1320.18 252.402 1316.77 252.402H1299.08C1296.36 252.402 1294.32 252.402 1293.64 251.721C1292.28 251.041 1291.6 249.68 1290.92 248.32L1269.14 202.057H1254.85C1252.81 202.057 1252.13 202.738 1252.13 204.098V248.32C1252.13 250.361 1250.77 251.721 1247.36 251.721Z" fill="#001871"/>
<path d="M1409.32 180.287H1432.46C1437.22 180.287 1440.63 179.607 1441.99 177.566C1444.03 175.525 1444.71 172.123 1444.71 168.041V149.672C1444.71 144.91 1444.03 141.508 1441.99 140.148C1439.95 138.107 1436.54 137.426 1432.46 137.426H1409.32C1407.96 137.426 1407.28 138.107 1407.28 139.467V178.246C1406.6 179.607 1407.28 180.287 1409.32 180.287ZM1402.52 251.721H1384.14C1381.42 251.721 1379.38 250.361 1379.38 246.959V117.697C1379.38 114.975 1380.74 112.934 1384.14 112.934H1436.54C1447.43 112.934 1456.28 115.656 1462.4 121.779C1468.53 127.902 1471.93 136.746 1471.93 147.631V168.041C1471.93 178.926 1468.53 187.77 1462.4 193.893C1456.28 200.016 1447.43 202.738 1436.54 202.738H1409.32C1407.28 202.738 1406.6 203.418 1406.6 204.779V245.598C1406.6 250.361 1405.24 251.721 1402.52 251.721Z" fill="#001871"/>
<path d="M1533.86 139.467L1518.2 202.057H1550.19L1534.54 139.467H1533.86ZM1502.55 251.721H1482.14C1479.41 251.721 1478.73 250.361 1479.41 246.959L1513.44 117.016C1514.12 114.295 1516.84 112.254 1520.24 112.254H1548.83C1552.23 112.254 1554.27 113.615 1555.63 117.016L1589.66 246.959C1590.34 249.68 1589.66 251.721 1586.93 251.721H1566.52C1565.16 251.721 1563.8 251.721 1563.12 251.041C1562.44 250.361 1562.44 249 1561.76 247.639L1555.63 223.828H1513.44L1507.32 247.639C1507.32 249.68 1506.63 250.361 1505.95 251.041C1505.27 251.721 1503.91 251.721 1502.55 251.721Z" fill="#001871"/>
<path d="M1646.14 251.721H1627.76C1624.36 251.721 1623 250.361 1623 246.959V139.467C1623 138.107 1622.32 137.426 1620.96 137.426H1596.46C1593.74 137.426 1591.7 136.066 1591.7 132.664V117.697C1591.7 114.975 1593.06 112.934 1596.46 112.934H1678.12C1680.84 112.934 1682.89 114.295 1682.89 117.697V132.664C1682.89 135.385 1681.52 137.426 1678.12 137.426H1653.62C1651.58 137.426 1650.9 138.107 1650.9 139.467V247.639C1650.22 250.361 1648.86 251.721 1646.14 251.721Z" fill="#001871"/>
<path d="M1723.04 178.926H1744.13C1748.89 178.926 1752.3 178.246 1754.34 176.205C1756.38 174.164 1757.74 171.443 1757.74 166.68V149.672C1757.74 144.91 1756.38 142.189 1754.34 140.148C1752.3 138.107 1748.89 137.426 1744.13 137.426H1723.04C1721.67 137.426 1720.99 138.107 1720.99 139.467V176.885C1720.31 178.246 1721.67 178.926 1723.04 178.926ZM1716.23 251.721H1697.86C1695.13 251.721 1693.09 250.361 1693.09 246.959V117.697C1693.09 114.975 1694.45 112.934 1697.86 112.934H1748.89C1759.78 112.934 1768.63 116.336 1775.43 122.459C1781.56 128.582 1784.96 137.426 1784.96 148.311V165.32C1784.96 181.648 1778.84 192.533 1765.91 197.975V198.656L1789.04 246.959C1790.4 250.361 1789.04 252.402 1785.64 252.402H1767.95C1765.23 252.402 1763.18 252.402 1762.5 251.721C1761.14 251.041 1760.46 249.68 1759.78 248.32L1738.01 202.057H1723.72C1721.67 202.057 1720.99 202.738 1720.99 204.098V248.32C1720.31 250.361 1718.95 251.721 1716.23 251.721Z" fill="#001871"/>
<path d="M1843.48 227.91H1859.14C1863.9 227.91 1867.3 227.229 1868.66 225.189C1870.7 223.148 1871.38 219.746 1871.38 215.664V149.672C1871.38 144.91 1870.7 141.508 1868.66 140.148C1866.62 138.787 1863.22 137.426 1859.14 137.426H1843.48C1838.72 137.426 1835.32 138.107 1833.96 140.148C1831.92 142.189 1831.23 145.59 1831.23 149.672V215.664C1831.23 220.426 1831.92 223.828 1833.96 225.189C1836 227.229 1838.72 227.91 1843.48 227.91ZM1863.22 251.721H1839.4C1827.83 251.721 1818.99 249 1812.86 242.877C1806.74 236.754 1803.33 227.91 1803.33 217.025V148.992C1803.33 137.426 1806.74 129.262 1812.86 123.139C1818.99 117.016 1827.83 114.295 1839.4 114.295H1863.9C1875.47 114.295 1884.31 117.016 1890.44 123.139C1896.56 129.262 1899.97 138.107 1899.97 148.992V217.025C1899.97 228.59 1896.56 236.754 1890.44 242.877C1883.63 249 1874.79 251.721 1863.22 251.721Z" fill="#001871"/>
<path d="M1995.24 251.721H1924.46C1921.74 251.721 1919.7 250.361 1919.7 246.959V117.697C1919.7 114.975 1921.06 112.934 1924.46 112.934H1942.84C1945.56 112.934 1947.6 114.295 1947.6 117.697V225.189C1947.6 226.549 1948.28 227.229 1950.32 227.229H1995.92C1998.64 227.229 2000 228.59 2000 231.992V246.959C1999.32 250.361 1997.96 251.721 1995.24 251.721Z" fill="#001871"/>
</svg>