<svg width="2000" height="330" viewBox="0 0 2000 330" fill="none" xmlns="http://www.w3.org/2000/svg"><g clip-path="url(#clip0)"><path d="M1401.38 105.883V53.2408C1401.32 52.8034 1401.36 52.357 1401.5 51.937C1401.63 51.517 1401.87 51.1347 1402.18 50.8204C1402.49 50.5061 1402.87 50.2683 1403.29 50.1258C1403.71 49.9832 1404.15 49.9398 1404.59 49.9991H1435.77C1438.14 49.7545 1440.52 49.9805 1442.8 50.6639C1445.07 51.3474 1447.19 52.4747 1449.02 53.9807C1451.93 57.8046 1453.29 62.587 1452.83 67.3703V92.0351C1453.27 96.7182 1451.91 101.394 1449.02 105.107C1447.19 106.613 1445.07 107.741 1442.8 108.424C1440.52 109.108 1438.14 109.334 1435.77 109.089H1404.59C1404.15 109.148 1403.71 109.105 1403.29 108.962C1402.87 108.82 1402.49 108.582 1402.18 108.268C1401.87 107.953 1401.63 107.571 1401.5 107.151C1401.36 106.731 1401.32 106.285 1401.38 105.847V105.883ZM1401.38 200.56V144.994C1401.38 142.845 1402.55 141.788 1404.91 141.788H1441.98C1457.27 141.788 1469.13 137.618 1477.56 129.279C1486 120.94 1490.21 109.124 1490.21 93.832V65.6436C1490.21 50.328 1486 38.5123 1477.56 30.1968C1469.13 21.8812 1457.27 17.7117 1441.98 17.6882H1370.03C1369.19 17.5649 1368.33 17.639 1367.52 17.9047C1366.72 18.1704 1365.98 18.6204 1365.38 19.2189C1364.78 19.8174 1364.32 20.548 1364.05 21.3526C1363.78 22.1573 1363.71 23.0139 1363.82 23.8544V200.631C1363.71 201.471 1363.78 202.328 1364.05 203.133C1364.32 203.937 1364.78 204.668 1365.38 205.266C1365.98 205.865 1366.72 206.315 1367.52 206.58C1368.33 206.846 1369.19 206.92 1370.03 206.797H1395.01C1395.85 206.92 1396.7 206.846 1397.51 206.58C1398.32 206.315 1399.05 205.865 1399.65 205.266C1400.25 204.668 1400.71 203.937 1400.98 203.133C1401.25 202.328 1401.33 201.471 1401.21 200.631L1401.38 200.56ZM1248.53 200.631V112.26C1248.53 96.9445 1255.3 89.2867 1268.83 89.2867H1289.12C1289.92 89.4602 1290.74 89.4585 1291.53 89.282C1292.32 89.1055 1293.06 88.7584 1293.71 88.2649C1294.72 86.8598 1295.19 85.1284 1295.01 83.4023V62.9306C1295.01 58.8432 1293.07 56.7643 1289.12 56.7643H1278.55C1272.52 56.7509 1266.57 58.1635 1261.18 60.8869C1255.99 63.3221 1251.9 67.6243 1249.73 72.9374H1248.53V62.9306C1248.65 62.0934 1248.57 61.2404 1248.3 60.4389C1248.03 59.6373 1247.58 58.9089 1246.99 58.3112C1246.39 57.7134 1245.66 57.2627 1244.86 56.9942C1244.06 56.7258 1243.2 56.6471 1242.37 56.7643H1217.35C1216.51 56.6349 1215.65 56.7044 1214.84 56.9674C1214.02 57.2303 1213.29 57.6795 1212.68 58.2788C1212.07 58.8781 1211.62 59.6109 1211.34 60.4186C1211.07 61.2264 1210.99 62.0866 1211.11 62.9306V200.596C1211 201.433 1211.07 202.286 1211.34 203.087C1211.61 203.889 1212.06 204.617 1212.66 205.215C1213.26 205.813 1213.99 206.263 1214.79 206.532C1215.59 206.8 1216.44 206.879 1217.28 206.762H1242.3C1243.14 206.887 1243.99 206.813 1244.8 206.547C1245.6 206.282 1246.33 205.831 1246.93 205.232C1247.53 204.632 1247.98 203.9 1248.25 203.095C1248.51 202.29 1248.59 201.434 1248.46 200.596L1248.53 200.631ZM1154.95 206.762H1180.25C1181.85 206.905 1183.45 206.494 1184.79 205.599C1185.33 204.895 1185.73 204.09 1185.96 203.231C1186.19 202.372 1186.25 201.477 1186.13 200.596V62.9306C1186.24 62.0915 1186.16 61.238 1185.89 60.4368C1185.61 59.6356 1185.16 58.9083 1184.56 58.3115C1183.96 57.7147 1183.23 57.2647 1182.42 56.9963C1181.62 56.7279 1180.77 56.6485 1179.93 56.7643H1154.74C1150.83 56.7643 1148.85 58.8432 1148.85 62.9306V200.596C1148.73 201.436 1148.81 202.293 1149.08 203.097C1149.35 203.902 1149.81 204.633 1150.41 205.231C1151.01 205.83 1151.74 206.279 1152.55 206.545C1153.36 206.811 1154.21 206.885 1155.05 206.762H1154.95ZM1154.74 37.3496H1180.35C1181.15 37.4684 1181.97 37.3982 1182.74 37.1445C1183.51 36.8908 1184.2 36.4608 1184.78 35.8888C1185.35 35.3168 1185.78 34.6187 1186.03 33.8505C1186.29 33.0824 1186.36 32.2655 1186.24 31.4653V5.60249C1186.24 1.86753 1184.26 6.32286e-05 1180.35 6.32286e-05H1154.74C1153.94 -0.111181 1153.12 -0.035662 1152.36 0.220715C1151.59 0.477092 1150.9 0.907259 1150.33 1.47753C1149.76 2.04779 1149.33 2.74262 1149.07 3.50726C1148.82 4.27191 1148.74 5.08555 1148.85 5.88433V31.4653C1148.73 32.2655 1148.8 33.0824 1149.06 33.8505C1149.31 34.6187 1149.74 35.3168 1150.31 35.8888C1150.88 36.4608 1151.58 36.8908 1152.35 37.1445C1153.12 37.3982 1153.94 37.4684 1154.74 37.3496V37.3496ZM1058.86 53.2408L1080 138.229H1036.49L1057.63 53.2408H1058.86ZM1019.29 205.458C1020.39 204.056 1021.06 202.368 1021.23 200.596L1029.44 168.249H1086.8L1095.05 200.596C1095.2 202.342 1095.81 204.017 1096.81 205.458C1097.42 205.965 1098.12 206.342 1098.88 206.566C1099.63 206.79 1100.43 206.857 1101.21 206.762H1129.4C1132.93 206.762 1134.09 204.718 1132.93 200.596L1086.49 23.8192C1086.06 21.8656 1084.91 20.1447 1083.27 19.0013C1081.63 17.8578 1079.62 17.3762 1077.64 17.653H1038.46C1036.5 17.4927 1034.55 18.0213 1032.94 19.1472C1031.33 20.2731 1030.17 21.9257 1029.65 23.8192L983.175 200.596C981.977 204.718 983.175 206.762 986.698 206.762H1014.89C1015.65 206.836 1016.42 206.758 1017.15 206.535C1017.88 206.311 1018.56 205.945 1019.15 205.458H1019.29ZM911.612 200.596V6.16627C911.736 5.3277 911.663 4.47151 911.397 3.66641C911.132 2.86131 910.681 2.12971 910.081 1.53022C909.482 0.93072 908.75 0.479989 907.945 0.214263C907.14 -0.0514629 906.284 -0.124792 905.445 6.32286e-05H880.428C879.59 -0.124792 878.733 -0.0514629 877.928 0.214263C877.123 0.479989 876.392 0.93072 875.792 1.53022C875.193 2.12971 874.742 2.86131 874.476 3.66641C874.211 4.47151 874.137 5.3277 874.262 6.16627V200.596C874.137 201.434 874.211 202.29 874.476 203.095C874.742 203.9 875.193 204.632 875.792 205.232C876.392 205.831 877.123 206.282 877.928 206.547C878.733 206.813 879.59 206.887 880.428 206.762H905.445C906.284 206.887 907.14 206.813 907.945 206.547C908.75 206.282 909.482 205.831 910.081 205.232C910.681 204.632 911.132 203.9 911.397 203.095C911.663 202.29 911.736 201.434 911.612 200.596ZM816.476 206.762H841.775C843.378 206.905 844.982 206.494 846.32 205.599C846.863 204.895 847.261 204.09 847.49 203.231C847.72 202.372 847.778 201.477 847.659 200.596V62.9306C847.77 62.0915 847.686 61.238 847.413 60.4368C847.14 59.6356 846.686 58.9083 846.086 58.3115C845.485 57.7147 844.756 57.2647 843.953 56.9963C843.15 56.7279 842.296 56.6485 841.458 56.7643H816.159C812.248 56.7643 810.274 58.8432 810.274 62.9306V200.596C810.156 201.436 810.235 202.293 810.505 203.097C810.776 203.902 811.23 204.633 811.832 205.231C812.434 205.83 813.167 206.279 813.973 206.545C814.779 206.811 815.636 206.885 816.476 206.762V206.762ZM816.159 37.3496H841.775C842.575 37.4684 843.392 37.3982 844.16 37.1445C844.928 36.8908 845.626 36.4608 846.198 35.8888C846.77 35.3168 847.201 34.6187 847.454 33.8505C847.708 33.0824 847.778 32.2655 847.659 31.4653V5.60249C847.659 1.86753 845.686 6.32286e-05 841.775 6.32286e-05H816.159C815.36 -0.111181 814.546 -0.035662 813.782 0.220715C813.017 0.477092 812.322 0.907259 811.752 1.47753C811.182 2.04779 810.751 2.74262 810.495 3.50726C810.239 4.27191 810.163 5.08555 810.274 5.88433V31.4653C810.156 32.2655 810.226 33.0824 810.48 33.8505C810.733 34.6187 811.163 35.3168 811.735 35.8888C812.307 36.4608 813.005 36.8908 813.774 37.1445C814.542 37.3982 815.359 37.4684 816.159 37.3496V37.3496ZM669.086 62.9306L705.872 200.349C706.165 202.212 707.137 203.902 708.6 205.092C710.064 206.282 711.916 206.889 713.8 206.797H751.149C752.1 206.924 753.067 206.857 753.991 206.597C754.914 206.338 755.775 205.893 756.521 205.289C757.266 204.685 757.881 203.936 758.326 203.086C758.772 202.237 759.04 201.305 759.113 200.349L796.18 62.9306C797.343 58.8432 795.863 56.7643 791.741 56.7643H765.878C764.084 56.6079 762.301 57.1691 760.921 58.325C759.54 59.481 758.675 61.1372 758.514 62.9306L733.849 173.535H731.911L706.471 62.9306C706.335 61.1855 705.522 59.563 704.205 58.4104C702.887 57.2579 701.171 56.667 699.424 56.7643H673.561C669.438 56.7643 667.958 58.8432 669.121 62.9306H669.086ZM623.844 206.762H649.143C650.746 206.905 652.35 206.494 653.688 205.599C654.231 204.895 654.628 204.09 654.858 203.231C655.088 202.372 655.145 201.477 655.027 200.596V62.9306C655.144 62.0934 655.066 61.2404 654.797 60.4389C654.529 59.6373 654.078 58.9089 653.48 58.3112C652.882 57.7134 652.154 57.2627 651.352 56.9942C650.551 56.7258 649.698 56.6471 648.861 56.7643H623.562C619.615 56.7643 617.677 58.8432 617.677 62.9306V200.596C617.553 201.434 617.626 202.29 617.892 203.095C618.157 203.9 618.608 204.632 619.208 205.232C619.807 205.831 620.539 206.282 621.344 206.547C622.149 206.813 623.005 206.887 623.844 206.762V206.762ZM623.562 37.3496H649.143C649.943 37.4684 650.76 37.3982 651.528 37.1445C652.296 36.8908 652.994 36.4608 653.566 35.8888C654.138 35.3168 654.568 34.6187 654.822 33.8505C655.076 33.0824 655.146 32.2655 655.027 31.4653V5.60249C655.027 1.86753 653.054 6.32286e-05 649.143 6.32286e-05H623.562C622.762 -0.118776 621.945 -0.0485648 621.176 0.205123C620.408 0.458811 619.71 0.88884 619.138 1.46086C618.566 2.03288 618.136 2.73094 617.882 3.49909C617.629 4.26724 617.559 5.08414 617.677 5.88433V31.4653C617.559 32.2655 617.629 33.0824 617.882 33.8505C618.136 34.6187 618.566 35.3168 619.138 35.8888C619.71 36.4608 620.408 36.8908 621.176 37.1445C621.945 37.3982 622.762 37.4684 623.562 37.3496V37.3496ZM589.806 194.288C598.333 185.949 602.597 174.134 602.597 158.841V144.994C602.721 144.115 602.639 143.219 602.357 142.378C602.074 141.536 601.6 140.772 600.97 140.146C600.341 139.52 599.574 139.049 598.731 138.772C597.888 138.494 596.992 138.417 596.113 138.546H571.448C567.326 138.546 565.282 140.695 565.282 144.994V157.08C565.789 159.466 565.691 161.941 564.997 164.279C564.303 166.618 563.035 168.745 561.308 170.469C559.581 172.192 557.451 173.455 555.111 174.145C552.771 174.834 550.296 174.927 547.911 174.416H527.897C523.191 174.868 518.495 173.45 514.825 170.469C511.809 166.693 510.381 161.891 510.843 157.08V67.3703C510.374 62.5586 511.802 57.7538 514.825 53.9807C518.49 50.9873 523.186 49.5569 527.897 49.9991H547.911C550.298 49.4948 552.774 49.5945 555.113 50.2889C557.452 50.9833 559.58 52.2506 561.306 53.9759C563.031 55.7011 564.298 57.8298 564.993 60.1687C565.687 62.5077 565.787 64.9831 565.282 67.3703V79.4207C565.282 83.7194 567.326 85.904 571.448 85.904H596.113C596.993 86.0271 597.89 85.9443 598.733 85.662C599.576 85.3797 600.341 84.9056 600.97 84.2772C601.598 83.6488 602.072 82.8831 602.354 82.0404C602.637 81.1977 602.72 80.3009 602.597 79.4207V65.6085C602.597 50.2928 598.333 38.4772 589.806 30.1616C581.279 21.846 569.358 17.6764 554.042 17.653H521.978C506.521 17.653 494.565 21.7638 486.108 29.9854C477.652 38.207 473.435 50.0814 473.459 65.6085V158.841C473.459 174.345 477.675 186.208 486.108 194.429C494.541 202.651 506.498 206.762 521.978 206.762H554.042C569.334 206.762 581.256 202.604 589.806 194.288" fill="#001689"/><path d="M1502.9 58.1032C1501.88 59.3868 1501.4 61.0171 1501.56 62.6486V82.0633C1501.56 86.362 1503.64 88.5466 1507.76 88.5466H1560.61C1565.42 88.0669 1570.22 89.4829 1574 92.4931C1577 96.1725 1578.42 100.879 1577.98 105.601V112.26C1577.98 114.409 1576.79 115.467 1574.46 115.467H1540.6C1529.08 115.467 1494.44 116.453 1494.44 155.318V159.018C1494.44 174.474 1498.66 186.337 1507.09 194.605C1515.52 202.874 1527.48 206.985 1542.96 206.938H1614.74V104.755C1614.74 89.2514 1610.52 77.3887 1602.09 69.1671C1593.65 60.9455 1581.7 56.823 1566.22 56.7995H1507.76C1506.03 56.6307 1504.3 57.1076 1502.9 58.1385V58.1032ZM1577.56 143.549V174.979C1577.56 174.979 1566.74 174.733 1560.47 174.733H1548.14C1545.78 175.315 1543.31 175.277 1540.97 174.624C1538.63 173.971 1536.5 172.724 1534.79 171.005C1533.07 169.285 1531.83 167.152 1531.18 164.811C1530.53 162.469 1530.5 160.001 1531.09 157.643V156.516C1530.21 140.167 1540.25 140.308 1545.18 140.308H1574.46C1574.9 140.242 1575.35 140.281 1575.77 140.421C1576.2 140.561 1576.58 140.798 1576.9 141.113C1577.21 141.428 1577.45 141.812 1577.59 142.235C1577.73 142.658 1577.77 143.108 1577.7 143.549" fill="#001689"/><path d="M2000 200.596V6.16627C2000.13 5.3277 2000.05 4.47151 1999.79 3.66641C1999.52 2.86131 1999.07 2.12971 1998.47 1.53022C1997.87 0.93072 1997.14 0.479989 1996.33 0.214263C1995.53 -0.0514629 1994.67 -0.124792 1993.83 6.32246e-05H1968.68C1967.84 -0.124792 1966.98 -0.0514629 1966.18 0.214263C1965.37 0.479989 1964.64 0.93072 1964.04 1.53022C1963.44 2.12971 1962.99 2.86131 1962.72 3.66641C1962.46 4.47151 1962.38 5.3277 1962.51 6.16627V200.596C1962.39 201.435 1962.46 202.292 1962.73 203.099C1962.99 203.905 1963.44 204.638 1964.04 205.24C1964.64 205.842 1965.37 206.296 1966.17 206.566C1966.98 206.836 1967.84 206.915 1968.68 206.797H1993.69C1994.53 206.915 1995.39 206.836 1996.19 206.566C1997 206.296 1997.73 205.842 1998.33 205.24C1998.93 204.638 1999.38 203.905 1999.64 203.099C1999.91 202.292 1999.98 201.435 1999.86 200.596H2000ZM1864.77 170.892C1862.23 168.355 1860.96 163.845 1860.96 157.643V105.883C1860.38 103.528 1860.42 101.063 1861.07 98.7273C1861.72 96.3914 1862.97 94.2631 1864.68 92.5483C1866.4 90.8335 1868.52 89.5902 1870.86 88.9385C1873.2 88.2869 1875.66 88.2491 1878.02 88.8286H1893.03C1897.8 88.3544 1902.58 89.7288 1906.38 92.6693C1909.06 95.2062 1910.36 99.7164 1910.36 105.883V157.643C1910.36 163.951 1909.06 168.214 1906.38 170.892C1902.58 173.833 1897.8 175.207 1893.03 174.733H1878.02C1873.27 175.223 1868.52 173.846 1864.77 170.892V170.892ZM1934.32 194.288C1942.9 185.949 1947.17 174.134 1947.15 158.841V104.72C1947.15 89.4276 1942.87 77.6119 1934.32 69.2729C1925.77 60.9338 1913.86 56.7643 1898.59 56.7643H1872.41C1856.91 56.7643 1844.95 60.8869 1836.54 69.132C1828.13 77.3771 1824.02 89.2396 1824.21 104.72V158.841C1824.21 174.345 1828.43 186.208 1836.86 194.429C1845.29 202.651 1857.25 206.773 1872.73 206.797H1898.91C1914.2 206.797 1926.11 202.627 1934.64 194.288H1934.32ZM1770.69 200.596V112.26C1770.69 96.9445 1777.45 89.2867 1790.98 89.2867H1811.28C1812.07 89.4596 1812.88 89.4577 1813.67 89.2811C1814.45 89.1045 1815.19 88.7576 1815.82 88.2649C1816.86 86.8647 1817.33 85.1329 1817.16 83.4023V62.9305C1817.16 58.8432 1815.19 56.7643 1811.28 56.7643H1800.71C1794.69 56.7471 1788.74 58.1601 1783.37 60.8869C1778.17 63.3207 1774.07 67.6219 1771.89 72.9374H1770.72V62.9305C1770.83 62.0915 1770.75 61.238 1770.48 60.4368C1770.2 59.6356 1769.75 58.9083 1769.15 58.3115C1768.55 57.7147 1767.82 57.2647 1767.02 56.9963C1766.21 56.7279 1765.36 56.6485 1764.52 56.7643H1739.54C1738.7 56.6485 1737.85 56.7279 1737.04 56.9963C1736.24 57.2647 1735.51 57.7147 1734.91 58.3115C1734.31 58.9083 1733.86 59.6356 1733.58 60.4368C1733.31 61.238 1733.23 62.0915 1733.34 62.9305V200.596C1733.22 201.437 1733.3 202.295 1733.57 203.101C1733.84 203.906 1734.29 204.638 1734.9 205.239C1735.5 205.84 1736.23 206.294 1737.03 206.564C1737.84 206.834 1738.7 206.914 1739.54 206.797H1764.31C1765.15 206.914 1766.01 206.834 1766.82 206.564C1767.62 206.294 1768.35 205.84 1768.95 205.239C1769.55 204.638 1770.01 203.906 1770.28 203.101C1770.55 202.295 1770.63 201.437 1770.51 200.596H1770.69ZM1644.51 92.3522V159.123C1644.51 174.416 1648.77 186.161 1657.3 194.359C1665.83 202.557 1677.83 206.679 1693.31 206.726H1711.46C1713.18 206.911 1714.9 206.432 1716.28 205.388C1717.3 204.104 1717.78 202.474 1717.62 200.842V180.617C1717.75 179.777 1717.67 178.92 1717.41 178.114C1717.14 177.308 1716.69 176.575 1716.09 175.973C1715.49 175.371 1714.76 174.917 1713.96 174.646C1713.15 174.376 1712.3 174.297 1711.46 174.416H1699.69C1694.84 174.873 1690 173.462 1686.16 170.469C1684.63 168.672 1683.47 166.586 1682.77 164.334C1682.06 162.082 1681.81 159.711 1682.04 157.362V92.3522C1682.04 90.2028 1683.2 89.1105 1685.56 89.1105H1708.5C1710.22 89.2894 1711.95 88.8252 1713.36 87.8068C1714.39 86.5125 1714.87 84.8692 1714.7 83.2262V62.9305C1714.81 62.0915 1714.73 61.238 1714.45 60.4368C1714.18 59.6356 1713.73 58.9083 1713.13 58.3115C1712.52 57.7147 1711.79 57.2647 1710.99 56.9963C1710.19 56.7279 1709.34 56.6485 1708.5 56.7643H1685.56C1683.2 56.7643 1682.04 55.7072 1682.04 53.5226V25.5809C1682.15 24.7438 1682.07 23.8908 1681.81 23.0892C1681.54 22.2877 1681.09 21.5593 1680.49 20.9615C1679.89 20.3638 1679.16 19.913 1678.36 19.6446C1677.56 19.3762 1676.71 19.2975 1675.87 19.4147H1651.2C1646.91 19.4147 1644.76 21.4584 1644.76 25.5809V53.5226C1644.82 53.9634 1644.78 54.4134 1644.64 54.8365C1644.5 55.2596 1644.27 55.6442 1643.95 55.9593C1643.64 56.2744 1643.25 56.5113 1642.83 56.6511C1642.41 56.7909 1641.96 56.8297 1641.51 56.7643H1629.75C1628.89 56.6098 1628.02 56.6605 1627.19 56.9122C1626.36 57.1639 1625.6 57.6094 1624.98 58.2119C1624.35 58.8144 1623.88 59.5566 1623.6 60.3771C1623.32 61.1976 1623.24 62.0729 1623.37 62.9305V83.2262C1623.26 84.0604 1623.32 84.9078 1623.54 85.7186C1623.77 86.5295 1624.15 87.2874 1624.67 87.9477C1626.11 88.877 1627.83 89.2871 1629.53 89.1105H1641.3C1641.74 89.0526 1642.19 89.0967 1642.61 89.2392C1643.03 89.3816 1643.41 89.6186 1643.72 89.932C1644.04 90.2454 1644.27 90.6267 1644.42 91.0463C1644.56 91.466 1644.6 91.9128 1644.54 92.3522" fill="#001689"/><path d="M173.323 39.8513L20.084 306.549H326.527L173.323 39.8513Z" fill="white"/><path d="M346.611 317.965H0L173.288 16.3139L346.611 317.965ZM23.0792 304.611H323.532L173.288 43.1634L23.0792 304.611Z" fill="#001689"/><path d="M192.809 222.477C193.518 219.932 193.715 217.271 193.389 214.65C193.063 212.028 192.22 209.497 190.909 207.203C189.598 204.909 187.846 202.898 185.752 201.286C183.659 199.674 181.267 198.493 178.714 197.812C202.393 101.513 180.406 67.6874 173.57 67.6874C166.734 67.6874 144.747 101.513 168.39 197.812C164.092 198.953 160.29 201.481 157.576 205.005C154.861 208.528 153.386 212.849 153.38 217.297C153.391 219.072 153.64 220.838 154.12 222.547C58.9843 250.242 40.5561 286.147 43.974 292.102C47.3918 298.057 87.666 300.136 159.264 231.532C161.14 233.411 163.367 234.901 165.819 235.917C168.27 236.934 170.898 237.457 173.552 237.457C176.207 237.457 178.835 236.934 181.286 235.917C183.738 234.901 185.965 233.411 187.84 231.532C259.192 300.065 299.466 297.951 302.884 291.961C306.302 285.971 287.944 250.172 192.809 222.477Z" fill="#C10230"/></g><defs><clipPath id="clip0"><rect width="2000" height="329.98" fill="white"/></clipPath></defs></svg>