<svg width="2000" height="330" viewBox="0 0 2000 330" fill="none" xmlns="http://www.w3.org/2000/svg"><g clip-path="url(#clip0)"><path d="M1401.3 105.889V53.244C1401.24 52.8065 1401.28 52.3602 1401.41 51.9401C1401.55 51.52 1401.78 51.1378 1402.1 50.8234C1402.41 50.5091 1402.79 50.2713 1403.2 50.1288C1403.62 49.9862 1404.07 49.9428 1404.51 50.0021H1435.7C1438.06 49.7575 1440.44 49.9835 1442.72 50.667C1444.99 51.3504 1447.11 52.4778 1448.95 53.9839C1451.86 57.8081 1453.22 62.5907 1452.75 67.3743V92.0406C1453.19 96.724 1451.83 101.4 1448.95 105.114C1447.11 106.62 1444.99 107.747 1442.72 108.431C1440.44 109.114 1438.06 109.34 1435.7 109.096H1404.51C1404.07 109.155 1403.62 109.111 1403.2 108.969C1402.79 108.826 1402.41 108.589 1402.1 108.274C1401.78 107.96 1401.55 107.578 1401.41 107.158C1401.28 106.737 1401.24 106.291 1401.3 105.854V105.889ZM1401.3 200.572V145.003C1401.3 142.853 1402.46 141.796 1404.82 141.796H1441.9C1457.19 141.796 1469.06 137.626 1477.49 129.287C1485.92 120.947 1490.14 109.131 1490.14 93.8376V65.6476C1490.14 50.331 1485.92 38.5146 1477.49 30.1986C1469.06 21.8825 1457.19 17.7128 1441.9 17.6893H1369.94C1369.1 17.5659 1368.24 17.64 1367.43 17.9057C1366.63 18.1715 1365.89 18.6215 1365.29 19.22C1364.69 19.8186 1364.24 20.5492 1363.97 21.3539C1363.69 22.1586 1363.62 23.0153 1363.73 23.8558V200.643C1363.62 201.483 1363.69 202.34 1363.97 203.145C1364.24 203.949 1364.69 204.68 1365.29 205.279C1365.89 205.877 1366.63 206.327 1367.43 206.593C1368.24 206.859 1369.1 206.933 1369.94 206.809H1394.92C1395.76 206.933 1396.62 206.859 1397.43 206.593C1398.23 206.327 1398.97 205.877 1399.57 205.279C1400.17 204.68 1400.62 203.949 1400.89 203.145C1401.16 202.34 1401.24 201.483 1401.12 200.643L1401.3 200.572ZM1248.43 200.643V112.267C1248.43 96.9503 1255.19 89.2921 1268.73 89.2921H1289.02C1289.82 89.4655 1290.64 89.4638 1291.43 89.2873C1292.22 89.1108 1292.96 88.7637 1293.61 88.2701C1294.62 86.865 1295.09 85.1335 1294.91 83.4073V62.9343C1294.91 58.8468 1292.97 56.7677 1289.02 56.7677H1278.45C1272.42 56.7543 1266.46 58.167 1261.08 60.8906C1255.88 63.3259 1251.79 67.6284 1249.63 72.9418H1248.43V62.9343C1248.54 62.0971 1248.47 61.2441 1248.2 60.4425C1247.93 59.6408 1247.48 58.9124 1246.88 58.3146C1246.28 57.7169 1245.55 57.2661 1244.75 56.9976C1243.95 56.7292 1243.1 56.6505 1242.26 56.7677H1217.24C1216.4 56.6383 1215.54 56.7078 1214.73 56.9708C1213.91 57.2337 1213.18 57.683 1212.57 58.2823C1211.96 58.8816 1211.51 59.6145 1211.23 60.4223C1210.96 61.2301 1210.88 62.0904 1211 62.9343V200.608C1210.89 201.445 1210.96 202.298 1211.23 203.099C1211.5 203.901 1211.95 204.629 1212.55 205.227C1213.15 205.825 1213.88 206.276 1214.68 206.544C1215.48 206.813 1216.33 206.891 1217.17 206.774H1242.19C1243.03 206.899 1243.89 206.826 1244.69 206.56C1245.5 206.294 1246.23 205.843 1246.83 205.244C1247.43 204.644 1247.88 203.913 1248.14 203.107C1248.41 202.302 1248.48 201.446 1248.36 200.608L1248.43 200.643ZM1154.83 206.774H1180.13C1181.74 206.917 1183.34 206.507 1184.68 205.611C1185.22 204.907 1185.62 204.102 1185.85 203.243C1186.08 202.385 1186.14 201.489 1186.02 200.608V62.9343C1186.13 62.0952 1186.04 61.2417 1185.77 60.4404C1185.5 59.6392 1185.04 58.9118 1184.44 58.315C1183.84 57.7181 1183.11 57.2681 1182.31 56.9997C1181.51 56.7313 1180.65 56.6519 1179.81 56.7677H1154.62C1150.71 56.7677 1148.73 58.8468 1148.73 62.9343V200.608C1148.61 201.448 1148.69 202.305 1148.96 203.109C1149.23 203.914 1149.69 204.645 1150.29 205.243C1150.89 205.842 1151.63 206.292 1152.43 206.558C1153.24 206.823 1154.09 206.898 1154.93 206.774H1154.83ZM1154.62 37.3518H1180.24C1181.04 37.4706 1181.85 37.4004 1182.62 37.1467C1183.39 36.893 1184.09 36.463 1184.66 35.8909C1185.23 35.3189 1185.66 34.6207 1185.92 33.8526C1186.17 33.0844 1186.24 32.2674 1186.12 31.4672V5.6028C1186.12 1.86762 1184.15 3.62747e-05 1180.24 3.62747e-05H1154.62C1153.82 -0.111214 1153 -0.0356911 1152.24 0.220701C1151.48 0.477094 1150.78 0.907287 1150.21 1.47759C1149.64 2.04789 1149.21 2.74276 1148.95 3.50745C1148.7 4.27214 1148.62 5.08583 1148.73 5.88465V31.4672C1148.61 32.2674 1148.68 33.0844 1148.94 33.8526C1149.19 34.6207 1149.62 35.3189 1150.19 35.8909C1150.77 36.463 1151.46 36.893 1152.23 37.1467C1153 37.4004 1153.82 37.4706 1154.62 37.3518V37.3518ZM1058.73 53.244L1079.87 138.237H1036.35L1057.49 53.244H1058.73ZM1019.15 205.47C1020.25 204.068 1020.92 202.381 1021.09 200.608L1029.3 168.26H1086.67L1094.92 200.608C1095.08 202.354 1095.68 204.03 1096.68 205.47C1097.29 205.977 1097.99 206.354 1098.75 206.579C1099.51 206.803 1100.3 206.869 1101.09 206.774H1129.28C1132.8 206.774 1133.97 204.73 1132.8 200.608L1086.36 23.8206C1085.93 21.8669 1084.78 20.1459 1083.14 19.0024C1081.5 17.8589 1079.49 17.3772 1077.51 17.654H1038.32C1036.37 17.4937 1034.42 18.0223 1032.81 19.1483C1031.2 20.2743 1030.03 21.927 1029.51 23.8206L983.032 200.608C981.834 204.73 983.032 206.774 986.556 206.774H1014.75C1015.51 206.848 1016.28 206.771 1017.01 206.547C1017.74 206.323 1018.42 205.958 1019.01 205.47H1019.15ZM911.459 200.608V6.16661C911.583 5.32799 911.51 4.47175 911.244 3.6666C910.979 2.86146 910.528 2.12981 909.928 1.53028C909.329 0.930749 908.597 0.479991 907.792 0.214249C906.987 -0.0514929 906.13 -0.124826 905.292 3.62747e-05H880.271C879.432 -0.124826 878.576 -0.0514929 877.771 0.214249C876.965 0.479991 876.234 0.930749 875.634 1.53028C875.035 2.12981 874.584 2.86146 874.318 3.6666C874.052 4.47175 873.979 5.32799 874.104 6.16661V200.608C873.979 201.446 874.052 202.302 874.318 203.107C874.584 203.913 875.035 204.644 875.634 205.244C876.234 205.843 876.965 206.294 877.771 206.56C878.576 206.826 879.432 206.899 880.271 206.774H905.292C906.13 206.899 906.987 206.826 907.792 206.56C908.597 206.294 909.329 205.843 909.928 205.244C910.528 204.644 910.979 203.913 911.244 203.107C911.51 202.302 911.583 201.446 911.459 200.608ZM816.309 206.774H841.612C843.216 206.917 844.82 206.507 846.158 205.611C846.701 204.907 847.098 204.102 847.328 203.243C847.558 202.385 847.616 201.489 847.497 200.608V62.9343C847.608 62.0952 847.524 61.2417 847.251 60.4404C846.978 59.6392 846.524 58.9118 845.923 58.315C845.323 57.7181 844.593 57.2681 843.79 56.9997C842.987 56.7313 842.133 56.6519 841.295 56.7677H815.992C812.081 56.7677 810.107 58.8468 810.107 62.9343V200.608C809.989 201.448 810.068 202.305 810.338 203.109C810.608 203.914 811.062 204.645 811.664 205.243C812.267 205.842 813 206.292 813.806 206.558C814.612 206.823 815.469 206.898 816.309 206.774V206.774ZM815.992 37.3518H841.612C842.412 37.4706 843.229 37.4004 843.998 37.1467C844.766 36.893 845.464 36.463 846.036 35.8909C846.608 35.3189 847.038 34.6207 847.292 33.8526C847.546 33.0844 847.616 32.2674 847.497 31.4672V5.6028C847.497 1.86762 845.524 3.62747e-05 841.612 3.62747e-05H815.992C815.193 -0.111214 814.38 -0.0356911 813.615 0.220701C812.85 0.477094 812.155 0.907287 811.585 1.47759C811.015 2.04789 810.584 2.74276 810.328 3.50745C810.071 4.27214 809.996 5.08583 810.107 5.88465V31.4672C809.988 32.2674 810.058 33.0844 810.312 33.8526C810.566 34.6207 810.996 35.3189 811.568 35.8909C812.14 36.463 812.838 36.893 813.607 37.1467C814.375 37.4004 815.192 37.4706 815.992 37.3518V37.3518ZM668.899 62.9343L705.69 200.361C705.983 202.224 706.955 203.914 708.419 205.104C709.882 206.295 711.734 206.902 713.619 206.809H750.974C751.925 206.937 752.892 206.869 753.815 206.61C754.739 206.35 755.6 205.905 756.346 205.301C757.091 204.698 757.706 203.948 758.152 203.099C758.597 202.249 758.865 201.317 758.938 200.361L796.011 62.9343C797.174 58.8468 795.694 56.7677 791.571 56.7677H765.704C763.91 56.6112 762.127 57.1725 760.747 58.3285C759.366 59.4845 758.5 61.1409 758.339 62.9343L733.671 173.545H731.732L706.289 62.9343C706.153 61.1892 705.34 59.5665 704.022 58.4139C702.705 57.2613 700.988 56.6704 699.241 56.7677H673.374C669.251 56.7677 667.771 58.8468 668.934 62.9343H668.899ZM623.65 206.774H648.953C650.556 206.917 652.161 206.507 653.499 205.611C654.041 204.907 654.439 204.102 654.669 203.243C654.899 202.385 654.956 201.489 654.838 200.608V62.9343C654.955 62.0971 654.876 61.2441 654.608 60.4425C654.339 59.6408 653.888 58.9124 653.291 58.3146C652.693 57.7169 651.964 57.2661 651.163 56.9976C650.361 56.7292 649.508 56.6505 648.671 56.7677H623.368C619.421 56.7677 617.483 58.8468 617.483 62.9343V200.608C617.358 201.446 617.431 202.302 617.697 203.107C617.963 203.913 618.414 204.644 619.013 205.244C619.613 205.843 620.345 206.294 621.15 206.56C621.955 206.826 622.811 206.899 623.65 206.774V206.774ZM623.368 37.3518H648.953C649.753 37.4706 650.57 37.4004 651.338 37.1467C652.106 36.893 652.805 36.463 653.377 35.8909C653.949 35.3189 654.379 34.6207 654.633 33.8526C654.886 33.0844 654.957 32.2674 654.838 31.4672V5.6028C654.838 1.86762 652.864 3.62747e-05 648.953 3.62747e-05H623.368C622.568 -0.11881 621.751 -0.0485947 620.982 0.205109C620.214 0.458812 619.516 0.888867 618.944 1.46092C618.372 2.03297 617.942 2.73108 617.688 3.49928C617.434 4.26747 617.364 5.08442 617.483 5.88465V31.4672C617.364 32.2674 617.434 33.0844 617.688 33.8526C617.942 34.6207 618.372 35.3189 618.944 35.8909C619.516 36.463 620.214 36.893 620.982 37.1467C621.751 37.4004 622.568 37.4706 623.368 37.3518V37.3518ZM589.608 194.3C598.136 185.96 602.4 174.144 602.4 158.851V145.003C602.525 144.124 602.442 143.228 602.16 142.386C601.878 141.544 601.403 140.78 600.773 140.154C600.144 139.528 599.377 139.058 598.534 138.78C597.69 138.502 596.794 138.425 595.916 138.554H571.247C567.124 138.554 565.08 140.704 565.08 145.003V157.089C565.587 159.475 565.489 161.951 564.795 164.289C564.101 166.628 562.832 168.756 561.106 170.479C559.379 172.202 557.248 173.466 554.908 174.155C552.568 174.845 550.092 174.938 547.707 174.426H527.69C522.983 174.878 518.287 173.46 514.616 170.479C511.6 166.703 510.171 161.9 510.634 157.089V67.3743C510.164 62.5624 511.593 57.7572 514.616 53.9839C518.281 50.9903 522.978 49.5599 527.69 50.0021H547.707C550.094 49.4977 552.57 49.5974 554.909 50.2919C557.249 50.9864 559.378 52.2537 561.103 53.9791C562.829 55.7045 564.096 57.8332 564.791 60.1723C565.485 62.5115 565.585 64.9869 565.08 67.3743V79.4255C565.08 83.7245 567.124 85.9092 571.247 85.9092H595.916C596.796 86.0322 597.693 85.9494 598.536 85.6671C599.379 85.3848 600.144 84.9107 600.773 84.2823C601.401 83.6538 601.875 82.888 602.158 82.0453C602.44 81.2025 602.523 80.3057 602.4 79.4255V65.6124C602.4 50.2958 598.136 38.4795 589.608 30.1634C581.079 21.8473 569.157 17.6775 553.839 17.654H521.77C506.311 17.654 494.353 21.765 485.895 29.9871C477.437 38.2093 473.22 50.0844 473.244 65.6124V158.851C473.244 174.356 477.461 186.219 485.895 194.441C494.329 202.663 506.288 206.774 521.77 206.774H553.839C569.133 206.774 581.056 202.616 589.608 194.3" fill="#001689"/><path d="M1502.83 58.1067C1501.81 59.3903 1501.33 61.0208 1501.49 62.6524V82.0683C1501.49 86.3672 1503.57 88.552 1507.69 88.552H1560.55C1565.36 88.0722 1570.16 89.4883 1573.94 92.4987C1576.94 96.1783 1578.37 100.885 1577.93 105.607V112.267C1577.93 114.416 1576.73 115.474 1574.4 115.474H1540.54C1529.01 115.474 1494.37 116.46 1494.37 155.327V159.027C1494.37 174.485 1498.59 186.348 1507.02 194.617C1515.46 202.886 1527.41 206.997 1542.9 206.95H1614.68V104.761C1614.68 89.2567 1610.46 77.3934 1602.03 69.1713C1593.6 60.9492 1581.64 56.8265 1566.16 56.803H1507.69C1505.96 56.6341 1504.23 57.1111 1502.83 58.142V58.1067ZM1577.5 143.558V174.99C1577.5 174.99 1566.68 174.743 1560.41 174.743H1548.08C1545.72 175.325 1543.25 175.288 1540.91 174.635C1538.57 173.982 1536.44 172.735 1534.72 171.015C1533 169.296 1531.76 167.162 1531.11 164.82C1530.47 162.479 1530.43 160.01 1531.02 157.653V156.525C1530.14 140.175 1540.18 140.316 1545.12 140.316H1574.4C1574.84 140.251 1575.29 140.29 1575.72 140.429C1576.14 140.569 1576.52 140.806 1576.84 141.121C1577.15 141.436 1577.39 141.821 1577.53 142.244C1577.67 142.667 1577.71 143.117 1577.64 143.558" fill="#001689"/><path d="M2000 200.608V6.16661C2000.12 5.32799 2000.05 4.47175 1999.79 3.6666C1999.52 2.86146 1999.07 2.12981 1998.47 1.53028C1997.87 0.930749 1997.14 0.479991 1996.33 0.214249C1995.53 -0.0514929 1994.67 -0.124826 1993.83 3.62747e-05H1968.67C1967.83 -0.124826 1966.98 -0.0514929 1966.17 0.214249C1965.37 0.479991 1964.63 0.930749 1964.03 1.53028C1963.43 2.12981 1962.98 2.86146 1962.72 3.6666C1962.45 4.47175 1962.38 5.32799 1962.5 6.16661V200.608C1962.38 201.447 1962.46 202.304 1962.72 203.111C1962.99 203.917 1963.44 204.65 1964.04 205.252C1964.63 205.854 1965.36 206.308 1966.17 206.579C1966.97 206.849 1967.83 206.928 1968.67 206.809H1993.69C1994.53 206.928 1995.39 206.849 1996.19 206.579C1997 206.308 1997.73 205.854 1998.33 205.252C1998.93 204.65 1999.38 203.917 1999.64 203.111C1999.91 202.304 1999.98 201.447 1999.86 200.608H2000ZM1864.75 170.902C1862.21 168.365 1860.94 163.855 1860.94 157.653V105.889C1860.36 103.534 1860.4 101.069 1861.05 98.7332C1861.7 96.3972 1862.95 94.2688 1864.66 92.5539C1866.38 90.839 1868.51 89.5955 1870.84 88.9439C1873.18 88.2922 1875.64 88.2544 1878 88.834H1893.01C1897.79 88.3597 1902.57 89.7342 1906.37 92.6748C1909.04 95.212 1910.35 99.7224 1910.35 105.889V157.653C1910.35 163.96 1909.04 168.224 1906.37 170.902C1902.57 173.843 1897.79 175.217 1893.01 174.743H1878C1873.25 175.234 1868.5 173.856 1864.75 170.902V170.902ZM1934.31 194.3C1942.89 185.96 1947.16 174.144 1947.14 158.851V104.726C1947.14 89.4329 1942.86 77.6166 1934.31 69.277C1925.76 60.9375 1913.85 56.7677 1898.58 56.7677H1872.39C1856.89 56.7677 1844.93 60.8906 1836.52 69.1362C1828.11 77.3818 1824 89.245 1824.19 104.726V158.851C1824.19 174.356 1828.4 186.219 1836.84 194.441C1845.27 202.663 1857.23 206.786 1872.71 206.809H1898.9C1914.19 206.809 1926.1 202.64 1934.63 194.3H1934.31ZM1770.66 200.608V112.267C1770.66 96.9503 1777.42 89.2921 1790.95 89.2921H1811.25C1812.04 89.465 1812.85 89.4631 1813.64 89.2865C1814.42 89.1099 1815.16 88.763 1815.8 88.2701C1816.83 86.8699 1817.31 85.138 1817.14 83.4073V62.9343C1817.14 58.8468 1815.16 56.7677 1811.25 56.7677H1800.68C1794.66 56.7505 1788.71 58.1636 1783.34 60.8906C1778.14 63.3245 1774.04 67.6259 1771.85 72.9418H1770.69V62.9343C1770.8 62.0952 1770.72 61.2417 1770.44 60.4404C1770.17 59.6392 1769.72 58.9118 1769.12 58.315C1768.52 57.7181 1767.79 57.2681 1766.98 56.9997C1766.18 56.7313 1765.33 56.6519 1764.49 56.7677H1739.5C1738.66 56.6519 1737.81 56.7313 1737.01 56.9997C1736.2 57.2681 1735.47 57.7181 1734.87 58.315C1734.27 58.9118 1733.82 59.6392 1733.55 60.4404C1733.27 61.2417 1733.19 62.0952 1733.3 62.9343V200.608C1733.18 201.449 1733.26 202.307 1733.53 203.113C1733.8 203.919 1734.26 204.651 1734.86 205.252C1735.46 205.853 1736.19 206.306 1737 206.576C1737.8 206.847 1738.66 206.926 1739.5 206.809H1764.28C1765.12 206.926 1765.98 206.847 1766.78 206.576C1767.59 206.306 1768.32 205.853 1768.92 205.252C1769.52 204.651 1769.98 203.919 1770.25 203.113C1770.52 202.307 1770.6 201.449 1770.48 200.608H1770.66ZM1644.46 92.3577V159.133C1644.46 174.426 1648.72 186.172 1657.25 194.37C1665.78 202.569 1677.78 206.692 1693.27 206.739H1711.42C1713.14 206.923 1714.86 206.444 1716.24 205.4C1717.26 204.116 1717.74 202.486 1717.58 200.854V180.628C1717.71 179.788 1717.63 178.931 1717.37 178.125C1717.1 177.318 1716.65 176.585 1716.05 175.983C1715.45 175.381 1714.72 174.927 1713.92 174.657C1713.11 174.387 1712.26 174.308 1711.42 174.426H1699.65C1694.8 174.884 1689.96 173.472 1686.11 170.479C1684.58 168.682 1683.43 166.596 1682.72 164.344C1682.01 162.092 1681.76 159.721 1681.99 157.371V92.3577C1681.99 90.2082 1683.15 89.1158 1685.51 89.1158H1708.46C1710.18 89.2948 1711.91 88.8305 1713.32 87.812C1714.34 86.5176 1714.83 84.8743 1714.66 83.2312V62.9343C1714.77 62.0952 1714.69 61.2417 1714.41 60.4404C1714.14 59.6392 1713.68 58.9118 1713.08 58.315C1712.48 57.7181 1711.75 57.2681 1710.95 56.9997C1710.15 56.7313 1709.29 56.6519 1708.46 56.7677H1685.51C1683.15 56.7677 1681.99 55.7106 1681.99 53.5258V25.5825C1682.11 24.7452 1682.03 23.8922 1681.76 23.0906C1681.49 22.289 1681.04 21.5606 1680.44 20.9628C1679.85 20.365 1679.12 19.9142 1678.32 19.6458C1677.51 19.3773 1676.66 19.2986 1675.82 19.4159H1651.15C1646.86 19.4159 1644.71 21.4597 1644.71 25.5825V53.5258C1644.77 53.9667 1644.73 54.4167 1644.59 54.8398C1644.45 55.263 1644.22 55.6475 1643.9 55.9626C1643.59 56.2777 1643.2 56.5147 1642.78 56.6545C1642.35 56.7943 1641.9 56.8331 1641.46 56.7677H1629.69C1628.84 56.6132 1627.96 56.6639 1627.13 56.9156C1626.3 57.1673 1625.55 57.6128 1624.92 58.2154C1624.3 58.8179 1623.83 59.5602 1623.55 60.3807C1623.27 61.2013 1623.19 62.0766 1623.31 62.9343V83.2312C1623.21 84.0654 1623.27 84.9129 1623.49 85.7238C1623.71 86.5347 1624.1 87.2927 1624.62 87.953C1626.06 88.8824 1627.78 89.2925 1629.48 89.1158H1641.25C1641.69 89.058 1642.14 89.1021 1642.56 89.2445C1642.98 89.387 1643.36 89.624 1643.67 89.9374C1643.99 90.2508 1644.22 90.6321 1644.37 91.0518C1644.51 91.4715 1644.55 91.9183 1644.49 92.3577" fill="#001689"/><path d="M346.66 318.16H0L173.348 16.4913L346.66 318.16ZM46.2002 291.415H300.46L173.348 70.158L46.2002 291.415Z" fill="#001689"/><path d="M173.348 43.3422L23.1177 304.805H323.578L173.348 43.3422Z" fill="white"/><path d="M193.681 222.666C194.13 220.952 194.367 219.188 194.386 217.416C194.38 212.968 192.905 208.647 190.19 205.123C187.476 201.599 183.673 199.071 179.374 197.93C203.055 101.59 181.065 67.7619 174.229 67.7619C167.392 67.7619 145.402 101.59 169.048 197.93C163.913 199.339 159.545 202.727 156.903 207.35C154.261 211.974 153.559 217.456 154.952 222.596C59.8031 250.257 41.3724 286.2 44.7907 292.155C48.209 298.11 88.5241 300.189 160.097 231.546C161.968 233.433 164.194 234.931 166.647 235.953C169.099 236.975 171.73 237.501 174.387 237.501C177.044 237.501 179.675 236.975 182.128 235.953C184.581 234.931 186.807 233.433 188.677 231.546C260.286 300.189 300.566 298.075 303.984 292.155C307.402 286.235 289.113 250.257 193.858 222.596" fill="#C10230"/></g><defs><clipPath id="clip0"><rect width="2000" height="330" fill="white"/></clipPath></defs></svg>